# xmcd
# 
# Track frame offsets:
#     150
#     7469
#     36046
#     61320
#     86586
#     91378
#     115318
#     139867
#     165831
#     171179
#     201808
#     232169
#     264372
# 
# Disc length: 3689
# 
# Revision: 3
# Processed by: cddbd v1.5.2PL0 Copyright (c) Steve Scherf et al.
# Submitted via: BonkEnc v1.0
# 
DISCID=ae0e670d
DTITLE=陳昇 - 這些人那些人
DYEAR=2006
DGENRE=Blues
TTITLE0=引子
TTITLE1=狗臉的歲月
TTITLE2=去年在北海道
TTITLE3=告訴媽媽
TTITLE4=橋這邊
TTITLE5=布考斯基協奏曲
TTITLE6=一碗麵
TTITLE7=本命年
TTITLE8=橋中央
TTITLE9=在上海走開
TTITLE10=變
TTITLE11=青鳥日記
TTITLE12=橋那邊
EXTD=YEAR: 2006
EXTT0=
EXTT1=
EXTT2=
EXTT3=
EXTT4=
EXTT5=
EXTT6=
EXTT7=
EXTT8=
EXTT9=
EXTT10=
EXTT11=
EXTT12=
PLAYORDER=
